<?xml version="1.0" encoding="utf-8"?>
<!-- Generator: Adobe Illustrator 16.0.0, SVG Export Plug-In . SVG Version: 6.00 Build 0)  -->
<!DOCTYPE svg PUBLIC "-//W3C//DTD SVG 1.1//EN" "http://www.w3.org/Graphics/SVG/1.1/DTD/svg11.dtd">
<svg version="1.1" id="Layer_1" xmlns="http://www.w3.org/2000/svg" xmlns:xlink="http://www.w3.org/1999/xlink" x="0px" y="0px"
	 width="999.991px" height="418.584px" viewBox="0 0 999.991 418.584" enable-background="new 0 0 999.991 418.584"
	 xml:space="preserve">
<rect x="18.036" y="17.59" fill="#FFA311" width="36.072" height="35.833"/>
<rect x="24.964" y="35.507" fill="#FF602F" width="36.072" height="35.834"/>
<rect x="0.159" y="71.673" fill="#FDED73" width="36.072" height="35.834"/>
<rect y="179.666" fill="#6FC6B2" width="36.072" height="35.834"/>
<rect x="18.195" y="143.34" fill="#E67FC4" width="36.072" height="35.834"/>
<rect x="0.159" y="107.507" fill="#FDED73" width="36.072" height="35.834"/>
<rect y="215.499" fill="#E67FC4" width="36.072" height="35.833"/>
<rect x="0.159" y="250.842" fill="#FDED73" width="36.072" height="35.835"/>
<rect x="6.928" y="269.242" fill="#FFA311" width="36.072" height="35.834"/>
<rect x="0.159" y="352.912" fill="#FDED73" width="36.072" height="35.834"/>
<rect y="322.999" fill="#FFA311" width="36.072" height="35.834"/>
<rect x="43.964" y="7.33" fill="#E67FC4" width="36.072" height="35.833"/>
<rect x="36.073" y="36.33" fill="#6FC6B2" width="36.072" height="35.834"/>
<rect x="36.073" y="72.164" fill="#FFA311" width="36.072" height="35.834"/>
<rect x="36.231" y="143.34" fill="#FF602F" width="36.072" height="35.834"/>
<rect x="36.073" y="107.997" fill="#FFA311" width="36.072" height="35.834"/>
<rect x="36.073" y="215.006" fill="#FF602F" width="36.072" height="35.833"/>
<rect x="36.073" y="251.332" fill="#6FC6B2" width="36.072" height="35.835"/>
<rect x="36.073" y="286.673" fill="#297EF0" width="36.072" height="35.834"/>
<rect x="43.964" y="364.833" fill="#E67FC4" width="36.072" height="35.834"/>
<rect x="36.073" y="322.999" fill="#E67FC4" width="36.072" height="35.834"/>
<rect x="72.146" y="7.33" fill="#6FC6B2" width="36.072" height="35.833"/>
<rect x="72.304" y="35.839" fill="#FDED73" width="36.072" height="35.834"/>
<rect x="72.146" y="72.164" fill="#E67FC4" width="36.072" height="35.834"/>
<rect x="72.146" y="179.665" fill="#7250DD" width="36.072" height="35.834"/>
<rect x="72.146" y="143.831" fill="#7250DD" width="36.072" height="35.834"/>
<rect x="72.146" y="107.997" fill="#7250DD" width="36.072" height="35.834"/>
<rect x="72.146" y="251.332" fill="#7250DD" width="36.072" height="35.835"/>
<rect x="72.146" y="287.165" fill="#7250DD" width="36.072" height="35.834"/>
<rect x="72.304" y="357.851" fill="#FF602F" width="36.072" height="35.834"/>
<rect x="72.304" y="322.509" fill="#FDED73" width="36.072" height="35.834"/>
<rect x="122.217" y="17.917" fill="#FFA311" width="36.072" height="35.833"/>
<rect x="108.217" y="36.329" fill="#6FC6B2" width="36.072" height="35.834"/>
<rect x="108.217" y="72.163" fill="#297EF0" width="36.072" height="35.834"/>
<rect x="108.217" y="108.074" fill="#297EF0" width="36.072" height="35.834"/>
<rect x="108.217" y="143.83" fill="#FFA311" width="36.072" height="35.834"/>
<rect x="108.217" y="215.498" fill="#FFA311" width="36.072" height="35.833"/>
<rect x="108.217" y="251.331" fill="#6FC6B2" width="36.072" height="35.834"/>
<rect x="108.217" y="287.165" fill="#7250DD" width="36.072" height="35.834"/>
<rect x="115.217" y="364.833" fill="#E67FC4" width="36.072" height="35.834"/>
<rect x="108.217" y="322.997" fill="#297EF0" width="36.072" height="35.834"/>
<rect x="144.449" y="0.498" fill="#E67FC4" width="36.072" height="35.833"/>
<rect x="151.29" y="43.746" fill="#FDED73" width="36.072" height="35.834"/>
<rect x="144.29" y="72.162" fill="#6FC6B2" width="36.072" height="35.834"/>
<rect x="144.449" y="179.173" fill="#FF602F" width="36.072" height="35.834"/>
<rect x="144.29" y="143.83" fill="#6FC6B2" width="36.072" height="35.834"/>
<rect x="144.29" y="107.996" fill="#7250DD" width="36.072" height="35.834"/>
<rect x="144.29" y="215.497" fill="#FF602F" width="36.072" height="35.833"/>
<rect x="144.29" y="251.331" fill="#6FC6B2" width="36.072" height="35.834"/>
<rect x="144.29" y="287.164" fill="#7250DD" width="36.072" height="35.834"/>
<rect x="144.449" y="358.341" fill="#FDED73" width="36.072" height="35.834"/>
<rect x="144.29" y="322.997" fill="#E67FC4" width="36.072" height="35.834"/>
<rect x="180.522" y="0.498" fill="#FFA311" width="36.072" height="35.833"/>
<rect x="180.363" y="36.329" fill="#FF602F" width="36.072" height="35.834"/>
<rect x="180.521" y="71.672" fill="#FDED73" width="36.072" height="35.834"/>
<rect x="180.363" y="179.664" fill="#6FC6B2" width="36.072" height="35.834"/>
<rect x="180.363" y="143.83" fill="#E67FC4" width="36.072" height="35.834"/>
<rect x="180.363" y="107.996" fill="#E67FC4" width="36.072" height="35.834"/>
<rect x="180.363" y="215.498" fill="#FF602F" width="36.072" height="35.833"/>
<rect x="180.363" y="251.331" fill="#6FC6B2" width="36.072" height="35.834"/>
<rect x="180.363" y="287.165" fill="#E67FC4" width="36.072" height="35.834"/>
<rect x="180.363" y="358.833" fill="#E67FC4" width="36.072" height="35.834"/>
<rect x="180.521" y="322.507" fill="#FDED73" width="36.072" height="35.834"/>
<rect x="227.472" y="10.249" fill="#FFA311" width="36.072" height="35.833"/>
<rect x="216.436" y="36.329" fill="#FFA311" width="36.072" height="35.834"/>
<rect x="216.436" y="72.162" fill="#FF602F" width="36.072" height="35.834"/>
<rect x="216.436" y="179.664" fill="#297EF0" width="36.072" height="35.834"/>
<rect x="216.436" y="107.996" fill="#297EF0" width="36.072" height="35.834"/>
<rect x="216.436" y="251.331" fill="#297EF0" width="36.072" height="35.834"/>
<rect x="216.436" y="287.163" fill="#297EF0" width="36.072" height="35.834"/>
<rect x="209.436" y="364.833" fill="#6FC6B2" width="36.072" height="35.834"/>
<rect x="216.436" y="322.997" fill="#E67FC4" width="36.072" height="35.834"/>
<rect x="252.508" y="0.495" fill="#FF602F" width="36.072" height="35.833"/>
<rect x="245.508" y="43.746" fill="#FDED73" width="36.072" height="35.834"/>
<rect x="252.508" y="71.673" fill="#FF602F" width="36.072" height="35.834"/>
<rect x="252.508" y="179.664" fill="#FFA311" width="36.072" height="35.834"/>
<rect x="252.508" y="143.83" fill="#FFA311" width="36.072" height="35.834"/>
<rect x="252.508" y="107.996" fill="#297EF0" width="36.072" height="35.834"/>
<rect x="252.508" y="251.331" fill="#E67FC4" width="36.072" height="35.834"/>
<rect x="252.508" y="287.163" fill="#297EF0" width="36.072" height="35.834"/>
<rect x="252.508" y="358.831" fill="#FFA311" width="36.072" height="35.834"/>
<rect x="252.508" y="322.997" fill="#FFA311" width="36.072" height="35.834"/>
<rect x="288.58" y="0.498" fill="#FFA311" width="36.072" height="35.833"/>
<rect x="288.58" y="36.328" fill="#E67FC4" width="36.072" height="35.834"/>
<rect x="288.58" y="72.161" fill="#FFA311" width="36.072" height="35.834"/>
<rect x="288.58" y="179.663" fill="#297EF0" width="36.072" height="35.834"/>
<rect x="288.58" y="143.829" fill="#297EF0" width="36.072" height="35.834"/>
<rect x="288.58" y="251.33" fill="#297EF0" width="36.072" height="35.833"/>
<rect x="288.739" y="364.833" fill="#FDED73" width="36.072" height="35.834"/>
<rect x="288.58" y="322.995" fill="#6FC6B2" width="36.072" height="35.834"/>
<rect x="324.653" y="0.004" fill="#FF602F" width="36.071" height="35.833"/>
<rect x="324.812" y="35.836" fill="#FDED73" width="36.072" height="35.834"/>
<rect x="324.653" y="72.161" fill="#297EF0" width="36.072" height="35.834"/>
<rect x="36.073" y="215.575" fill="#297EF0" width="36.072" height="35.834"/>
<rect x="324.653" y="143.828" fill="#FFA311" width="36.072" height="35.834"/>
<rect x="324.653" y="107.994" fill="#FFA311" width="36.072" height="35.834"/>
<rect x="324.653" y="215.496" fill="#6FC6B2" width="36.071" height="35.833"/>
<rect x="324.653" y="251.329" fill="#E67FC4" width="36.072" height="35.834"/>
<rect x="324.653" y="287.163" fill="#E67FC4" width="36.072" height="35.834"/>
<rect x="324.653" y="358.342" fill="#FF602F" width="36.072" height="35.834"/>
<rect x="324.653" y="322.995" fill="#FFA311" width="36.072" height="35.834"/>
<rect x="336.726" y="10.249" fill="#6FC6B2" width="36.072" height="35.833"/>
<rect x="360.726" y="35.841" fill="#FF602F" width="36.072" height="35.834"/>
<rect x="360.884" y="71.673" fill="#FDED73" width="36.072" height="35.834"/>
<rect x="360.726" y="179.666" fill="#297EF0" width="36.072" height="35.834"/>
<rect x="360.726" y="143.832" fill="#297EF0" width="36.072" height="35.834"/>
<rect x="360.726" y="215.499" fill="#297EF0" width="36.072" height="35.833"/>
<rect x="360.726" y="251.333" fill="#297EF0" width="36.072" height="35.834"/>
<rect x="360.726" y="287.166" fill="#297EF0" width="36.072" height="35.834"/>
<rect x="360.726" y="358.345" fill="#FF602F" width="36.072" height="35.834"/>
<rect x="360.884" y="322.509" fill="#FDED73" width="36.072" height="35.834"/>
<rect x="384.597" y="8.33" fill="#FFA311" width="36.072" height="35.833"/>
<rect x="396.798" y="36.33" fill="#6FC6B2" width="36.072" height="35.834"/>
<rect x="396.798" y="72.164" fill="#6FC6B2" width="36.072" height="35.834"/>
<rect x="396.798" y="179.666" fill="#FFA311" width="36.072" height="35.834"/>
<rect x="396.798" y="143.342" fill="#FF602F" width="36.072" height="35.834"/>
<rect x="396.798" y="107.997" fill="#6FC6B2" width="36.072" height="35.834"/>
<rect x="396.549" y="215.575" fill="#FDED73" width="36.072" height="35.833"/>
<rect x="396.798" y="250.843" fill="#FF602F" width="36.072" height="35.835"/>
<rect x="396.798" y="287.165" fill="#297EF0" width="36.072" height="35.834"/>
<rect x="385.662" y="364.833" fill="#FDED73" width="36.072" height="35.834"/>
<rect x="396.798" y="328.999" fill="#297EF0" width="36.072" height="35.834"/>
<rect x="432.871" y="0.497" fill="#6FC6B2" width="36.072" height="35.833"/>
<rect x="432.871" y="36.33" fill="#6FC6B2" width="36.072" height="35.834"/>
<rect x="432.622" y="72.24" fill="#FDED73" width="36.072" height="35.834"/>
<rect x="432.871" y="179.665" fill="#FFA311" width="36.072" height="35.834"/>
<rect x="432.622" y="143.907" fill="#FDED73" width="36.072" height="35.834"/>
<rect x="432.622" y="108.073" fill="#FDED73" width="36.072" height="35.834"/>
<rect x="432.871" y="215.499" fill="#E67FC4" width="36.072" height="35.833"/>
<rect x="432.871" y="251.332" fill="#297EF0" width="36.072" height="35.835"/>
<rect x="432.871" y="287.165" fill="#297EF0" width="36.072" height="35.834"/>
<rect x="432.871" y="358.833" fill="#FF602F" width="36.072" height="35.834"/>
<rect x="426.871" y="328.999" fill="#6FC6B2" width="36.072" height="35.834"/>
<rect x="468.943" y="0.496" fill="#FFA311" width="36.072" height="35.833"/>
<rect x="468.943" y="36.329" fill="#FFA311" width="36.072" height="35.834"/>
<rect x="468.943" y="71.673" fill="#FF602F" width="36.072" height="35.834"/>
<rect x="468.694" y="179.213" fill="#FDED73" width="36.072" height="35.834"/>
<rect x="468.943" y="143.83" fill="#FF602F" width="36.072" height="35.834"/>
<rect x="468.943" y="107.996" fill="#6FC6B2" width="36.072" height="35.834"/>
<rect x="468.943" y="215.575" fill="#FF602F" width="36.072" height="35.833"/>
<rect x="468.943" y="251.331" fill="#FF602F" width="36.072" height="35.834"/>
<rect x="468.943" y="287.165" fill="#E67FC4" width="36.072" height="35.834"/>
<rect x="468.943" y="382.75" fill="#FDED73" width="36.072" height="35.834"/>
<rect x="468.358" y="322.212" fill="#FDED73" width="36.072" height="35.834"/>
<rect x="493.963" y="0.006" fill="#FF602F" width="36.073" height="35.833"/>
<rect x="505.015" y="36.329" fill="#E67FC4" width="36.073" height="35.834"/>
<rect x="504.766" y="71.669" fill="#FDED73" width="36.073" height="35.834"/>
<rect x="505.015" y="143.83" fill="#7250DD" width="36.073" height="35.834"/>
<rect x="505.015" y="107.996" fill="#7250DD" width="36.073" height="35.834"/>
<rect x="505.015" y="215.497" fill="#7250DD" width="36.073" height="35.833"/>
<rect x="505.015" y="251.331" fill="#7250DD" width="36.073" height="35.834"/>
<rect x="505.015" y="287.164" fill="#7250DD" width="36.073" height="35.834"/>
<rect x="522.803" y="364.833" fill="#E67FC4" width="36.072" height="35.834"/>
<rect x="505.015" y="322.997" fill="#E67FC4" width="36.073" height="35.834"/>
<rect x="528.087" y="10.249" fill="#E67FC4" width="36.071" height="35.833"/>
<rect x="541.087" y="36.327" fill="#FF602F" width="36.072" height="35.834"/>
<rect x="541.087" y="72.161" fill="#297EF0" width="36.072" height="35.834"/>
<rect x="541.087" y="179.418" fill="#FDED73" width="36.072" height="35.834"/>
<rect x="541.087" y="143.828" fill="#FFA311" width="36.072" height="35.834"/>
<rect x="541.087" y="107.994" fill="#7250DD" width="36.072" height="35.834"/>
<rect x="541.087" y="251.329" fill="#FFA311" width="36.072" height="35.834"/>
<rect x="541.087" y="358.831" fill="#FFA311" width="36.072" height="35.834"/>
<rect x="541.087" y="322.999" fill="#FFA311" width="36.072" height="35.834"/>
<rect x="577.16" y="0.493" fill="#E67FC4" width="36.071" height="35.833"/>
<rect x="577.16" y="36.083" fill="#FDED73" width="36.072" height="35.834"/>
<rect x="577.16" y="71.671" fill="#FF602F" width="36.072" height="35.834"/>
<rect x="577.16" y="179.662" fill="#7250DD" width="36.072" height="35.834"/>
<rect x="577.16" y="143.828" fill="#7250DD" width="36.072" height="35.834"/>
<rect x="577.16" y="215.495" fill="#7250DD" width="36.071" height="35.833"/>
<rect x="577.16" y="251.329" fill="#7250DD" width="36.072" height="35.834"/>
<rect x="577.16" y="287.161" fill="#7250DD" width="36.072" height="35.834"/>
<rect x="577.16" y="358.585" fill="#FDED73" width="36.072" height="35.834"/>
<rect x="577.16" y="322.506" fill="#FF602F" width="36.072" height="35.834"/>
<rect x="901.811" y="322.993" fill="#E67FC4" width="36.072" height="35.834"/>
<rect x="919.846" y="364.833" fill="#6FC6B2" width="36.072" height="35.834"/>
<rect x="605.197" y="18.166" fill="#FDED73" width="36.072" height="35.833"/>
<rect x="613.232" y="36.083" fill="#FDED73" width="36.072" height="35.834"/>
<rect x="613.232" y="72.16" fill="#297EF0" width="36.072" height="35.834"/>
<rect x="613.232" y="179.417" fill="#FDED73" width="36.072" height="35.834"/>
<rect x="613.232" y="143.828" fill="#FFA311" width="36.072" height="35.834"/>
<rect x="613.232" y="107.75" fill="#FDED73" width="36.072" height="35.834"/>
<rect x="613.232" y="215.495" fill="#6FC6B2" width="36.072" height="35.833"/>
<rect x="613.232" y="251.329" fill="#E67FC4" width="36.072" height="35.834"/>
<rect x="613.232" y="287.161" fill="#E67FC4" width="36.072" height="35.834"/>
<rect x="600" y="364.833" fill="#6FC6B2" width="36.072" height="35.834"/>
<rect x="613.232" y="328.999" fill="#6FC6B2" width="36.072" height="35.834"/>
<rect x="950.883" y="299.161" fill="#FDED73" width="36.072" height="35.834"/>
<rect x="945.883" y="340.916" fill="#FFA311" width="36.072" height="35.834"/>
<rect x="641.27" fill="#FF602F" width="36.071" height="35.833"/>
<rect x="649.305" y="36.326" fill="#6FC6B2" width="36.072" height="35.834"/>
<rect x="649.305" y="72.159" fill="#6FC6B2" width="36.072" height="35.834"/>
<rect x="649.305" y="143.827" fill="#7250DD" width="36.072" height="35.834"/>
<rect x="649.305" y="107.993" fill="#7250DD" width="36.072" height="35.834"/>
<rect x="649.305" y="215.494" fill="#7250DD" width="36.071" height="35.833"/>
<rect x="649.305" y="251.328" fill="#7250DD" width="36.072" height="35.833"/>
<rect x="721.449" y="215.575" fill="#FF602F" width="36.072" height="35.834"/>
<rect x="901.812" y="215.499" fill="#FFA311" width="36.072" height="35.834"/>
<rect x="659.305" y="370.829" fill="#FFA311" width="36.072" height="35.834"/>
<rect x="649.305" y="322.993" fill="#E67FC4" width="36.072" height="35.834"/>
<rect x="901.813" y="250.841" fill="#FF602F" width="36.072" height="35.834"/>
<rect x="901.812" y="287.167" fill="#6FC6B2" width="36.072" height="35.834"/>
<rect x="685.377" y="0.002" fill="#FF602F" width="36.071" height="35.833"/>
<rect x="685.377" y="36.081" fill="#FDED73" width="36.072" height="35.834"/>
<rect x="685.377" y="71.669" fill="#297EF0" width="36.072" height="35.834"/>
<rect x="685.377" y="179.66" fill="#7250DD" width="36.072" height="35.834"/>
<rect x="685.377" y="143.826" fill="#FFA311" width="36.072" height="35.834"/>
<rect x="685.377" y="107.992" fill="#7250DD" width="36.072" height="35.834"/>
<rect x="685.377" y="215.494" fill="#7250DD" width="36.071" height="35.833"/>
<rect x="685.377" y="251.327" fill="#6FC6B2" width="36.072" height="35.834"/>
<rect x="685.377" y="287.161" fill="#6FC6B2" width="36.072" height="35.834"/>
<rect x="937.885" y="215.499" fill="#6FC6B2" width="36.071" height="35.834"/>
<rect x="685.377" y="358.585" fill="#FDED73" width="36.072" height="35.834"/>
<rect x="685.377" y="322.749" fill="#FDED73" width="36.072" height="35.834"/>
<rect x="950.883" y="220.663" fill="#6FC6B2" width="36.072" height="35.833"/>
<rect x="937.885" y="287.167" fill="#6FC6B2" width="36.071" height="35.834"/>
<rect x="697.377" y="17.917" fill="#E67FC4" width="36.072" height="35.833"/>
<rect x="721.449" y="36.082" fill="#FDED73" width="36.072" height="35.834"/>
<rect x="721.449" y="72.16" fill="#FFA311" width="36.072" height="35.834"/>
<rect x="721.449" y="179.661" fill="#7250DD" width="36.072" height="35.834"/>
<rect x="721.449" y="143.827" fill="#7250DD" width="36.072" height="35.834"/>
<rect x="721.449" y="107.993" fill="#7250DD" width="36.072" height="35.834"/>
<rect x="721.449" y="251.328" fill="#7250DD" width="36.072" height="35.835"/>
<rect x="721.449" y="287.161" fill="#7250DD" width="36.072" height="35.834"/>
<rect x="901.811" y="107.998" fill="#FDED73" width="36.072" height="35.834"/>
<rect x="733.449" y="370.829" fill="#E67FC4" width="36.072" height="35.834"/>
<rect x="715.413" y="334.995" fill="#FDED73" width="36.072" height="35.834"/>
<rect x="907.811" y="130.915" fill="#6FC6B2" width="36.072" height="35.834"/>
<rect x="901.811" y="179.666" fill="#297EF0" width="36.072" height="35.834"/>
<rect x="757.521" y="0.492" fill="#E67FC4" width="36.072" height="35.833"/>
<rect x="743.521" y="35.507" fill="#FFA311" width="36.072" height="35.834"/>
<rect x="757.521" y="72.159" fill="#FFA311" width="36.072" height="35.834"/>
<rect x="757.521" y="179.661" fill="#FFA311" width="36.072" height="35.834"/>
<rect x="757.521" y="143.827" fill="#FFA311" width="36.072" height="35.834"/>
<rect x="757.521" y="107.749" fill="#FDED73" width="36.072" height="35.834"/>
<rect x="757.521" y="215.25" fill="#FDED73" width="36.072" height="35.833"/>
<rect x="757.521" y="251.328" fill="#6FC6B2" width="36.072" height="35.835"/>
<rect x="757.521" y="286.669" fill="#FF602F" width="36.072" height="35.834"/>
<rect x="937.883" y="107.998" fill="#E67FC4" width="36.072" height="35.834"/>
<rect x="757.521" y="364.833" fill="#FFA311" width="36.072" height="35.834"/>
<rect x="757.521" y="322.995" fill="#E67FC4" width="36.072" height="35.834"/>
<rect x="963.919" y="143.907" fill="#FFA311" width="36.072" height="35.834"/>
<rect x="937.883" y="179.173" fill="#FFA311" width="36.072" height="35.834"/>
<rect x="789.929" y="8.33" fill="#FF602F" width="36.071" height="35.833"/>
<rect x="789.928" y="36.326" fill="#6FC6B2" width="36.072" height="35.834"/>
<rect x="793.595" y="72.159" fill="#FF602F" width="36.072" height="35.834"/>
<rect x="793.595" y="179.661" fill="#7250DD" width="36.072" height="35.834"/>
<rect x="793.595" y="143.827" fill="#7250DD" width="36.072" height="35.834"/>
<rect x="793.595" y="107.993" fill="#7250DD" width="36.072" height="35.834"/>
<rect x="793.595" y="215.494" fill="#FFA311" width="36.071" height="35.833"/>
<rect x="793.595" y="251.083" fill="#FDED73" width="36.072" height="35.835"/>
<rect x="793.595" y="286.669" fill="#FF602F" width="36.072" height="35.834"/>
<rect x="889.621" y="8.325" fill="#E67FC4" width="36.072" height="35.834"/>
<rect x="793.595" y="364.833" fill="#FF602F" width="36.072" height="35.834"/>
<rect x="793.595" y="322.995" fill="#FFA311" width="36.072" height="35.834"/>
<rect x="901.812" y="36.332" fill="#FFA311" width="36.072" height="35.834"/>
<rect x="914.811" y="61.663" fill="#6FC6B2" width="36.072" height="35.834"/>
<rect x="829.666" y="0.491" fill="#FDED73" width="36.072" height="35.833"/>
<rect x="829.666" y="36.325" fill="#6FC6B2" width="36.072" height="35.834"/>
<rect x="829.666" y="71.914" fill="#297EF0" width="36.072" height="35.834"/>
<rect x="829.666" y="143.826" fill="#FFA311" width="36.072" height="35.834"/>
<rect x="829.666" y="215.493" fill="#FFA311" width="36.072" height="35.833"/>
<rect x="829.666" y="251.327" fill="#297EF0" width="36.072" height="35.834"/>
<rect x="829.666" y="287.161" fill="#7250DD" width="36.072" height="35.834"/>
<rect x="914.811" y="0.498" fill="#FDED73" width="36.072" height="35.834"/>
<rect x="829.666" y="358.093" fill="#FF602F" width="36.072" height="35.834"/>
<rect x="108.217" y="179.666" fill="#FFA311" width="36.072" height="35.834"/>
<rect x="937.883" y="36.33" fill="#E67FC4" width="36.072" height="35.834"/>
<rect x="937.883" y="72.164" fill="#FFA311" width="36.072" height="35.834"/>
<rect x="865.739" y="0.491" fill="#E67FC4" width="36.071" height="35.833"/>
<rect x="826" y="18.415" fill="#FF602F" width="36.072" height="35.834"/>
<rect x="865.739" y="72.158" fill="#FF602F" width="36.072" height="35.834"/>
<rect x="865.739" y="179.659" fill="#7250DD" width="36.072" height="35.834"/>
<rect x="865.739" y="143.825" fill="#FFA311" width="36.072" height="35.834"/>
<rect x="865.739" y="107.991" fill="#7250DD" width="36.072" height="35.834"/>
<rect x="865.739" y="215.493" fill="#7250DD" width="36.071" height="35.833"/>
<rect x="865.739" y="251.326" fill="#7250DD" width="36.072" height="35.835"/>
<rect x="865.739" y="287.159" fill="#7250DD" width="36.072" height="35.834"/>
<rect x="865.739" y="364.833" fill="#FDED73" width="36.072" height="35.834"/>
<rect x="865.739" y="322.993" fill="#E67FC4" width="36.072" height="35.834"/>
<rect x="252.508" y="215.006" fill="#FDED73" width="36.072" height="35.833"/>
<rect x="649.304" y="287.159" fill="#297EF0" width="36.072" height="35.835"/>
<rect x="829.666" y="179.666" fill="#297EF0" width="36.072" height="35.833"/>
<rect x="829.665" y="108.074" fill="#297EF0" width="36.072" height="35.833"/>
<rect x="541.087" y="286.669" fill="#297EF0" width="36.072" height="35.834"/>
<rect x="505.016" y="179.173" fill="#297EF0" width="36.072" height="35.833"/>
<rect x="577.16" y="108.074" fill="#297EF0" width="36.072" height="35.833"/>
<rect x="541.088" y="215.574" fill="#6FC6B2" width="36.072" height="35.834"/>
<rect x="360.884" y="108.074" fill="#7250DD" width="36.072" height="35.834"/>
<rect x="288.58" y="107.749" fill="#7250DD" width="36.072" height="35.834"/>
<rect x="216.435" y="143.907" fill="#7250DD" width="36.072" height="35.834"/>
<rect x="216.436" y="215.574" fill="#7250DD" width="36.072" height="35.834"/>
<rect x="288.58" y="215.574" fill="#7250DD" width="36.072" height="35.834"/>
<rect x="288.739" y="286.673" fill="#7250DD" width="36.072" height="35.834"/>
<rect x="36.231" y="179.173" fill="#7250DD" width="36.072" height="35.834"/>
<rect x="72.304" y="215.575" fill="#297EF0" width="36.072" height="35.833"/>
<rect x="649.305" y="179.666" fill="#297EF0" width="36.072" height="35.833"/>
<rect x="829.666" y="322.213" fill="#297EF0" width="36.072" height="35.833"/>
<rect x="793.594" y="286.67" fill="#297EF0" width="36.072" height="35.833"/>
<rect x="324.652" y="179.666" fill="#FDED73" width="36.072" height="35.834"/>
</svg>
