<?xml version="1.0" encoding="utf-8"?>
<!-- Generator: Adobe Illustrator 16.0.0, SVG Export Plug-In . SVG Version: 6.00 Build 0)  -->
<!DOCTYPE svg PUBLIC "-//W3C//DTD SVG 1.1//EN" "http://www.w3.org/Graphics/SVG/1.1/DTD/svg11.dtd">
<svg version="1.1" id="Layer_1" xmlns="http://www.w3.org/2000/svg" xmlns:xlink="http://www.w3.org/1999/xlink" x="0px" y="0px"
	 width="973.957px" height="394.176px" viewBox="0 0 973.957 394.176" enable-background="new 0 0 973.957 394.176"
	 xml:space="preserve">
<rect x="0.159" y="0.007" fill="#FFA311" width="36.072" height="35.833"/>
<rect x="0.159" y="35.839" fill="#FF602F" width="36.072" height="35.834"/>
<rect x="0.159" y="71.749" fill="#FDED73" width="36.072" height="35.834"/>
<rect y="179.175" fill="#6FC6B2" width="36.072" height="35.834"/>
<rect x="0.159" y="143.417" fill="#E67FC4" width="36.072" height="35.834"/>
<rect x="0.159" y="107.583" fill="#FDED73" width="36.072" height="35.834"/>
<rect y="215.008" fill="#E67FC4" width="36.072" height="35.833"/>
<rect x="0.159" y="250.841" fill="#FDED73" width="36.072" height="35.835"/>
<rect x="0.159" y="286.675" fill="#FFA311" width="36.072" height="35.834"/>
<rect x="0.159" y="358.342" fill="#FDED73" width="36.072" height="35.834"/>
<rect y="322.508" fill="#FFA311" width="36.072" height="35.834"/>
<rect x="36.232" y="0.007" fill="#E67FC4" width="36.072" height="35.833"/>
<rect x="36.073" y="35.839" fill="#6FC6B2" width="36.072" height="35.834"/>
<rect x="36.073" y="71.673" fill="#FFA311" width="36.072" height="35.834"/>
<rect x="36.073" y="143.417" fill="#FF602F" width="36.072" height="35.834"/>
<rect x="36.073" y="107.506" fill="#FFA311" width="36.072" height="35.834"/>
<rect x="36.073" y="250.841" fill="#6FC6B2" width="36.072" height="35.835"/>
<rect x="36.073" y="286.675" fill="#297EF0" width="36.072" height="35.834"/>
<rect x="36.231" y="358.342" fill="#E67FC4" width="36.072" height="35.834"/>
<rect x="36.073" y="322.508" fill="#E67FC4" width="36.072" height="35.834"/>
<rect x="72.146" y="0.007" fill="#6FC6B2" width="36.072" height="35.833"/>
<rect x="72.145" y="35.839" fill="#FDED73" width="36.072" height="35.834"/>
<rect x="72.146" y="71.673" fill="#E67FC4" width="36.072" height="35.834"/>
<rect x="72.146" y="179.25" fill="#7250DD" width="36.072" height="35.834"/>
<rect x="72.146" y="143.417" fill="#7250DD" width="36.072" height="35.834"/>
<rect x="72.146" y="107.506" fill="#7250DD" width="36.072" height="35.834"/>
<rect x="72.146" y="250.841" fill="#7250DD" width="36.072" height="35.835"/>
<rect x="72.146" y="286.674" fill="#7250DD" width="36.072" height="35.834"/>
<rect x="72.304" y="358.342" fill="#FF602F" width="36.072" height="35.834"/>
<rect x="72.146" y="322.508" fill="#FDED73" width="36.072" height="35.834"/>
<rect x="108.217" y="0.007" fill="#FFA311" width="36.072" height="35.833"/>
<rect x="108.217" y="35.838" fill="#6FC6B2" width="36.072" height="35.834"/>
<rect x="108.217" y="71.749" fill="#297EF0" width="36.072" height="35.834"/>
<rect x="108.217" y="107.583" fill="#297EF0" width="36.072" height="35.834"/>
<rect x="108.217" y="143.339" fill="#FFA311" width="36.072" height="35.834"/>
<rect x="108.217" y="215.007" fill="#FFA311" width="36.072" height="35.833"/>
<rect x="108.217" y="250.84" fill="#6FC6B2" width="36.072" height="35.834"/>
<rect x="108.217" y="286.674" fill="#7250DD" width="36.072" height="35.834"/>
<rect x="108.217" y="358.342" fill="#E67FC4" width="36.072" height="35.834"/>
<rect x="108.217" y="322.506" fill="#297EF0" width="36.072" height="35.834"/>
<rect x="144.449" y="0.007" fill="#E67FC4" width="36.072" height="35.833"/>
<rect x="144.449" y="35.839" fill="#FDED73" width="36.072" height="35.834"/>
<rect x="144.29" y="71.671" fill="#6FC6B2" width="36.072" height="35.834"/>
<rect x="144.449" y="179.25" fill="#FF602F" width="36.072" height="35.834"/>
<rect x="144.29" y="143.339" fill="#6FC6B2" width="36.072" height="35.834"/>
<rect x="144.29" y="107.505" fill="#7250DD" width="36.072" height="35.834"/>
<rect x="144.29" y="215.006" fill="#FF602F" width="36.072" height="35.833"/>
<rect x="144.29" y="250.84" fill="#6FC6B2" width="36.072" height="35.834"/>
<rect x="144.29" y="286.673" fill="#7250DD" width="36.072" height="35.834"/>
<rect x="144.449" y="357.85" fill="#FDED73" width="36.072" height="35.834"/>
<rect x="144.29" y="322.506" fill="#E67FC4" width="36.072" height="35.834"/>
<rect x="180.522" y="0.007" fill="#FFA311" width="36.072" height="35.833"/>
<rect x="180.363" y="35.838" fill="#FF602F" width="36.072" height="35.834"/>
<rect x="180.363" y="71.749" fill="#FDED73" width="36.072" height="35.834"/>
<rect x="180.363" y="179.173" fill="#6FC6B2" width="36.072" height="35.834"/>
<rect x="180.363" y="143.339" fill="#E67FC4" width="36.072" height="35.834"/>
<rect x="180.363" y="107.505" fill="#E67FC4" width="36.072" height="35.834"/>
<rect x="180.363" y="215.007" fill="#FF602F" width="36.072" height="35.833"/>
<rect x="180.363" y="250.84" fill="#6FC6B2" width="36.072" height="35.834"/>
<rect x="180.363" y="286.674" fill="#E67FC4" width="36.072" height="35.834"/>
<rect x="180.363" y="358.342" fill="#E67FC4" width="36.072" height="35.834"/>
<rect x="180.363" y="322.508" fill="#FDED73" width="36.072" height="35.834"/>
<rect x="216.436" y="0.007" fill="#FFA311" width="36.072" height="35.833"/>
<rect x="216.436" y="35.838" fill="#FFA311" width="36.072" height="35.834"/>
<rect x="216.436" y="71.671" fill="#FF602F" width="36.072" height="35.834"/>
<rect x="216.436" y="179.173" fill="#297EF0" width="36.072" height="35.834"/>
<rect x="216.436" y="107.505" fill="#297EF0" width="36.072" height="35.834"/>
<rect x="216.436" y="250.84" fill="#297EF0" width="36.072" height="35.834"/>
<rect x="216.436" y="286.672" fill="#297EF0" width="36.072" height="35.834"/>
<rect x="216.436" y="358.342" fill="#6FC6B2" width="36.072" height="35.834"/>
<rect x="216.436" y="322.506" fill="#E67FC4" width="36.072" height="35.834"/>
<rect x="252.508" y="0.004" fill="#FF602F" width="36.072" height="35.833"/>
<rect x="252.508" y="35.839" fill="#FDED73" width="36.072" height="35.834"/>
<rect x="252.508" y="71.749" fill="#FF602F" width="36.072" height="35.834"/>
<rect x="252.508" y="179.173" fill="#FFA311" width="36.072" height="35.834"/>
<rect x="252.508" y="143.339" fill="#FFA311" width="36.072" height="35.834"/>
<rect x="252.508" y="107.505" fill="#297EF0" width="36.072" height="35.834"/>
<rect x="252.508" y="250.84" fill="#E67FC4" width="36.072" height="35.834"/>
<rect x="252.508" y="286.672" fill="#297EF0" width="36.072" height="35.834"/>
<rect x="252.508" y="358.34" fill="#FFA311" width="36.072" height="35.834"/>
<rect x="252.508" y="322.506" fill="#FFA311" width="36.072" height="35.834"/>
<rect x="288.58" y="0.007" fill="#FFA311" width="36.072" height="35.833"/>
<rect x="288.58" y="35.837" fill="#E67FC4" width="36.072" height="35.834"/>
<rect x="288.58" y="71.67" fill="#FFA311" width="36.072" height="35.834"/>
<rect x="288.58" y="179.172" fill="#297EF0" width="36.072" height="35.834"/>
<rect x="288.58" y="143.338" fill="#297EF0" width="36.072" height="35.834"/>
<rect x="288.58" y="250.839" fill="#297EF0" width="36.072" height="35.833"/>
<rect x="288.739" y="358.342" fill="#FDED73" width="36.072" height="35.834"/>
<rect x="288.58" y="322.504" fill="#6FC6B2" width="36.072" height="35.834"/>
<rect x="324.653" y="0.007" fill="#FF602F" width="36.071" height="35.833"/>
<rect x="324.652" y="35.915" fill="#FDED73" width="36.072" height="35.834"/>
<rect x="324.652" y="71.673" fill="#297EF0" width="36.072" height="35.834"/>
<rect x="36.073" y="215.006" fill="#297EF0" width="36.072" height="35.834"/>
<rect x="324.653" y="143.337" fill="#FFA311" width="36.072" height="35.834"/>
<rect x="324.653" y="107.503" fill="#FFA311" width="36.072" height="35.834"/>
<rect x="324.653" y="215.005" fill="#6FC6B2" width="36.071" height="35.833"/>
<rect x="324.653" y="250.838" fill="#E67FC4" width="36.072" height="35.834"/>
<rect x="324.653" y="286.672" fill="#E67FC4" width="36.072" height="35.834"/>
<rect x="324.653" y="357.851" fill="#FF602F" width="36.072" height="35.834"/>
<rect x="324.653" y="322.504" fill="#FFA311" width="36.072" height="35.834"/>
<rect x="360.726" y="0.007" fill="#6FC6B2" width="36.072" height="35.833"/>
<rect x="360.726" y="35.839" fill="#FF602F" width="36.072" height="35.834"/>
<rect x="360.884" y="71.749" fill="#FDED73" width="36.072" height="35.834"/>
<rect x="360.726" y="179.175" fill="#297EF0" width="36.072" height="35.834"/>
<rect x="360.726" y="143.341" fill="#297EF0" width="36.072" height="35.834"/>
<rect x="360.726" y="215.008" fill="#297EF0" width="36.072" height="35.833"/>
<rect x="360.726" y="250.842" fill="#297EF0" width="36.072" height="35.834"/>
<rect x="360.726" y="286.675" fill="#297EF0" width="36.072" height="35.834"/>
<rect x="360.726" y="357.854" fill="#FF602F" width="36.072" height="35.834"/>
<rect x="360.884" y="322.018" fill="#FDED73" width="36.072" height="35.834"/>
<rect x="396.957" y="0.007" fill="#FFA311" width="36.072" height="35.833"/>
<rect x="396.798" y="35.839" fill="#6FC6B2" width="36.072" height="35.834"/>
<rect x="396.798" y="71.673" fill="#6FC6B2" width="36.072" height="35.834"/>
<rect x="396.798" y="179.175" fill="#FFA311" width="36.072" height="35.834"/>
<rect x="396.798" y="143.341" fill="#FF602F" width="36.072" height="35.834"/>
<rect x="396.798" y="107.506" fill="#6FC6B2" width="36.072" height="35.834"/>
<rect x="396.549" y="215.084" fill="#FDED73" width="36.072" height="35.833"/>
<rect x="396.798" y="250.352" fill="#FF602F" width="36.072" height="35.835"/>
<rect x="396.798" y="286.178" fill="#297EF0" width="36.072" height="35.834"/>
<rect x="396.549" y="357.85" fill="#FDED73" width="36.072" height="35.834"/>
<rect x="396.798" y="321.721" fill="#297EF0" width="36.072" height="35.834"/>
<rect x="432.871" y="0.002" fill="#6FC6B2" width="36.072" height="35.833"/>
<rect x="432.871" y="35.839" fill="#6FC6B2" width="36.072" height="35.834"/>
<rect x="432.622" y="71.749" fill="#FDED73" width="36.072" height="35.834"/>
<rect x="432.871" y="179.174" fill="#FFA311" width="36.072" height="35.834"/>
<rect x="432.622" y="143.417" fill="#FDED73" width="36.072" height="35.834"/>
<rect x="432.622" y="107.583" fill="#FDED73" width="36.072" height="35.834"/>
<rect x="432.871" y="215.008" fill="#E67FC4" width="36.072" height="35.833"/>
<rect x="432.871" y="250.841" fill="#297EF0" width="36.072" height="35.835"/>
<rect x="432.871" y="286.674" fill="#297EF0" width="36.072" height="35.834"/>
<rect x="432.871" y="358.342" fill="#FF602F" width="36.072" height="35.834"/>
<rect x="432.871" y="322.508" fill="#6FC6B2" width="36.072" height="35.834"/>
<rect x="468.943" y="0.007" fill="#FFA311" width="36.072" height="35.833"/>
<rect x="468.943" y="35.838" fill="#FFA311" width="36.072" height="35.834"/>
<rect x="468.943" y="71.749" fill="#FF602F" width="36.072" height="35.834"/>
<rect x="468.694" y="179.175" fill="#FDED73" width="36.072" height="35.834"/>
<rect x="468.943" y="143.339" fill="#FF602F" width="36.072" height="35.834"/>
<rect x="468.943" y="107.505" fill="#6FC6B2" width="36.072" height="35.834"/>
<rect x="468.943" y="215.084" fill="#FF602F" width="36.072" height="35.833"/>
<rect x="468.943" y="250.84" fill="#FF602F" width="36.072" height="35.834"/>
<rect x="468.943" y="286.674" fill="#E67FC4" width="36.072" height="35.834"/>
<rect x="468.943" y="358.342" fill="#FDED73" width="36.072" height="35.834"/>
<rect x="468.943" y="322.508" fill="#FDED73" width="36.072" height="35.834"/>
<rect x="505.015" y="0.007" fill="#FF602F" width="36.073" height="35.833"/>
<rect x="505.015" y="35.592" fill="#E67FC4" width="36.073" height="35.834"/>
<rect x="505.015" y="71.749" fill="#FDED73" width="36.073" height="35.834"/>
<rect x="505.015" y="143.339" fill="#7250DD" width="36.073" height="35.834"/>
<rect x="505.015" y="107.505" fill="#7250DD" width="36.073" height="35.834"/>
<rect x="505.015" y="215.084" fill="#7250DD" width="36.073" height="35.833"/>
<rect x="505.015" y="250.84" fill="#7250DD" width="36.073" height="35.834"/>
<rect x="505.015" y="286.673" fill="#7250DD" width="36.073" height="35.834"/>
<rect x="505.016" y="358.342" fill="#E67FC4" width="36.072" height="35.834"/>
<rect x="505.015" y="322.506" fill="#E67FC4" width="36.073" height="35.834"/>
<rect x="541.089" y="0.007" fill="#E67FC4" width="36.071" height="35.833"/>
<rect x="541.087" y="35.836" fill="#FF602F" width="36.072" height="35.834"/>
<rect x="541.087" y="71.67" fill="#297EF0" width="36.072" height="35.834"/>
<rect x="541.087" y="178.927" fill="#FDED73" width="36.072" height="35.834"/>
<rect x="541.087" y="143.337" fill="#FFA311" width="36.072" height="35.834"/>
<rect x="541.087" y="107.503" fill="#7250DD" width="36.072" height="35.834"/>
<rect x="541.087" y="250.838" fill="#FFA311" width="36.072" height="35.834"/>
<rect x="541.087" y="358.34" fill="#FFA311" width="36.072" height="35.834"/>
<rect x="541.087" y="322.508" fill="#FFA311" width="36.072" height="35.834"/>
<rect x="577.16" y="0.002" fill="#E67FC4" width="36.071" height="35.833"/>
<rect x="577.159" y="35.915" fill="#FDED73" width="36.072" height="35.834"/>
<rect x="577.16" y="71.67" fill="#FF602F" width="36.072" height="35.834"/>
<rect x="577.16" y="179.171" fill="#7250DD" width="36.072" height="35.834"/>
<rect x="577.16" y="143.337" fill="#7250DD" width="36.072" height="35.834"/>
<rect x="577.16" y="215.004" fill="#7250DD" width="36.071" height="35.833"/>
<rect x="577.16" y="250.838" fill="#7250DD" width="36.072" height="35.834"/>
<rect x="577.16" y="286.67" fill="#7250DD" width="36.072" height="35.834"/>
<rect x="577.16" y="358.094" fill="#FDED73" width="36.072" height="35.834"/>
<rect x="577.16" y="322.015" fill="#FF602F" width="36.072" height="35.834"/>
<rect x="901.811" y="322.502" fill="#E67FC4" width="36.072" height="35.834"/>
<rect x="901.81" y="358.342" fill="#6FC6B2" width="36.072" height="35.834"/>
<rect x="613.232" y="0.007" fill="#FDED73" width="36.072" height="35.833"/>
<rect x="613.232" y="35.592" fill="#FDED73" width="36.072" height="35.834"/>
<rect x="613.232" y="71.669" fill="#297EF0" width="36.072" height="35.834"/>
<rect x="613.232" y="178.927" fill="#FDED73" width="36.072" height="35.834"/>
<rect x="613.232" y="143.337" fill="#FFA311" width="36.072" height="35.834"/>
<rect x="613.232" y="107.259" fill="#FDED73" width="36.072" height="35.834"/>
<rect x="613.232" y="215.004" fill="#6FC6B2" width="36.072" height="35.833"/>
<rect x="613.232" y="250.838" fill="#E67FC4" width="36.072" height="35.834"/>
<rect x="613.232" y="286.67" fill="#E67FC4" width="36.072" height="35.834"/>
<rect x="613.232" y="358.342" fill="#6FC6B2" width="36.072" height="35.834"/>
<rect x="613.232" y="322.508" fill="#6FC6B2" width="36.072" height="35.834"/>
<rect x="937.882" y="322.508" fill="#FDED73" width="36.072" height="35.834"/>
<rect x="937.882" y="358.342" fill="#FFA311" width="36.072" height="35.834"/>
<rect x="649.305" y="0.007" fill="#FF602F" width="36.071" height="35.833"/>
<rect x="649.305" y="35.835" fill="#6FC6B2" width="36.072" height="35.834"/>
<rect x="649.305" y="71.668" fill="#6FC6B2" width="36.072" height="35.834"/>
<rect x="649.305" y="143.336" fill="#7250DD" width="36.072" height="35.834"/>
<rect x="649.305" y="107.502" fill="#7250DD" width="36.072" height="35.834"/>
<rect x="649.305" y="215.003" fill="#7250DD" width="36.071" height="35.833"/>
<rect x="649.305" y="250.837" fill="#7250DD" width="36.072" height="35.833"/>
<rect x="721.449" y="215.084" fill="#FF602F" width="36.072" height="35.834"/>
<rect x="901.812" y="215.008" fill="#FFA311" width="36.072" height="35.834"/>
<rect x="649.305" y="357.85" fill="#FFA311" width="36.072" height="35.834"/>
<rect x="649.305" y="322.502" fill="#E67FC4" width="36.072" height="35.834"/>
<rect x="901.813" y="250.842" fill="#FF602F" width="36.072" height="35.834"/>
<rect x="901.812" y="286.676" fill="#6FC6B2" width="36.072" height="35.834"/>
<rect x="685.377" y="0.007" fill="#FF602F" width="36.071" height="35.833"/>
<rect x="685.377" y="35.59" fill="#FDED73" width="36.072" height="35.834"/>
<rect x="685.376" y="71.67" fill="#297EF0" width="36.072" height="35.834"/>
<rect x="685.377" y="179.169" fill="#7250DD" width="36.072" height="35.834"/>
<rect x="685.377" y="143.335" fill="#FFA311" width="36.072" height="35.834"/>
<rect x="685.377" y="107.501" fill="#7250DD" width="36.072" height="35.834"/>
<rect x="685.377" y="215.003" fill="#7250DD" width="36.071" height="35.833"/>
<rect x="685.377" y="250.836" fill="#6FC6B2" width="36.072" height="35.834"/>
<rect x="685.377" y="286.67" fill="#6FC6B2" width="36.072" height="35.834"/>
<rect x="937.883" y="215.008" fill="#6FC6B2" width="36.071" height="35.834"/>
<rect x="685.377" y="358.094" fill="#FDED73" width="36.072" height="35.834"/>
<rect x="685.377" y="322.258" fill="#FDED73" width="36.072" height="35.834"/>
<rect x="937.885" y="250.842" fill="#6FC6B2" width="36.072" height="35.834"/>
<rect x="937.885" y="286.676" fill="#6FC6B2" width="36.071" height="35.834"/>
<rect x="721.449" y="0.007" fill="#E67FC4" width="36.072" height="35.833"/>
<rect x="721.449" y="35.591" fill="#FDED73" width="36.072" height="35.834"/>
<rect x="721.449" y="71.669" fill="#FFA311" width="36.072" height="35.834"/>
<rect x="721.449" y="179.17" fill="#7250DD" width="36.072" height="35.834"/>
<rect x="721.449" y="143.336" fill="#7250DD" width="36.072" height="35.834"/>
<rect x="721.449" y="107.502" fill="#7250DD" width="36.072" height="35.834"/>
<rect x="721.449" y="250.837" fill="#7250DD" width="36.072" height="35.835"/>
<rect x="721.449" y="286.67" fill="#7250DD" width="36.072" height="35.834"/>
<rect x="901.811" y="107.507" fill="#FDED73" width="36.072" height="35.834"/>
<rect x="721.449" y="358.342" fill="#E67FC4" width="36.072" height="35.834"/>
<rect x="721.449" y="322.508" fill="#FDED73" width="36.072" height="35.834"/>
<rect x="901.813" y="143.417" fill="#6FC6B2" width="36.072" height="35.834"/>
<rect x="901.811" y="179.175" fill="#297EF0" width="36.072" height="35.834"/>
<rect x="757.521" y="0.001" fill="#E67FC4" width="36.072" height="35.833"/>
<rect x="757.521" y="35.59" fill="#FFA311" width="36.072" height="35.834"/>
<rect x="757.521" y="71.668" fill="#FFA311" width="36.072" height="35.834"/>
<rect x="757.521" y="179.17" fill="#FFA311" width="36.072" height="35.834"/>
<rect x="757.521" y="143.336" fill="#FFA311" width="36.072" height="35.834"/>
<rect x="757.521" y="107.258" fill="#FDED73" width="36.072" height="35.834"/>
<rect x="757.521" y="214.759" fill="#FDED73" width="36.072" height="35.833"/>
<rect x="757.521" y="250.837" fill="#6FC6B2" width="36.072" height="35.835"/>
<rect x="757.521" y="286.676" fill="#FF602F" width="36.072" height="35.834"/>
<rect x="937.883" y="107.507" fill="#E67FC4" width="36.072" height="35.834"/>
<rect x="757.521" y="358.342" fill="#FFA311" width="36.072" height="35.834"/>
<rect x="757.521" y="322.504" fill="#E67FC4" width="36.072" height="35.834"/>
<rect x="937.885" y="143.417" fill="#FFA311" width="36.072" height="35.834"/>
<rect x="937.882" y="179.175" fill="#FFA311" width="36.072" height="35.834"/>
<rect x="793.595" y="0.007" fill="#FF602F" width="36.071" height="35.833"/>
<rect x="793.594" y="35.915" fill="#6FC6B2" width="36.072" height="35.834"/>
<rect x="793.595" y="71.668" fill="#FF602F" width="36.072" height="35.834"/>
<rect x="793.595" y="179.17" fill="#7250DD" width="36.072" height="35.834"/>
<rect x="793.595" y="143.336" fill="#7250DD" width="36.072" height="35.834"/>
<rect x="793.595" y="107.502" fill="#7250DD" width="36.072" height="35.834"/>
<rect x="793.595" y="215.003" fill="#FFA311" width="36.071" height="35.833"/>
<rect x="793.595" y="250.593" fill="#FDED73" width="36.072" height="35.835"/>
<rect x="901.813" y="0.007" fill="#E67FC4" width="36.072" height="35.834"/>
<rect x="793.595" y="358.342" fill="#FF602F" width="36.072" height="35.834"/>
<rect x="793.595" y="322.504" fill="#FFA311" width="36.072" height="35.834"/>
<rect x="901.812" y="35.841" fill="#FFA311" width="36.072" height="35.834"/>
<rect x="901.811" y="71.749" fill="#6FC6B2" width="36.072" height="35.834"/>
<rect x="829.666" y="0" fill="#FDED73" width="36.072" height="35.833"/>
<rect x="829.666" y="35.834" fill="#6FC6B2" width="36.072" height="35.834"/>
<rect x="829.666" y="71.749" fill="#297EF0" width="36.072" height="35.834"/>
<rect x="829.666" y="143.335" fill="#FFA311" width="36.072" height="35.834"/>
<rect x="829.666" y="215.002" fill="#FFA311" width="36.072" height="35.833"/>
<rect x="829.666" y="250.836" fill="#297EF0" width="36.072" height="35.834"/>
<rect x="829.666" y="286.67" fill="#7250DD" width="36.072" height="35.834"/>
<rect x="937.885" y="0.007" fill="#FDED73" width="36.072" height="35.834"/>
<rect x="829.666" y="358.342" fill="#FF602F" width="36.072" height="35.834"/>
<rect x="108.217" y="179.175" fill="#FFA311" width="36.072" height="35.834"/>
<rect x="937.883" y="35.839" fill="#E67FC4" width="36.072" height="35.834"/>
<rect x="937.883" y="71.673" fill="#FFA311" width="36.072" height="35.834"/>
<rect x="865.739" fill="#E67FC4" width="36.071" height="35.833"/>
<rect x="865.739" y="35.915" fill="#FF602F" width="36.072" height="35.834"/>
<rect x="865.739" y="71.667" fill="#FF602F" width="36.072" height="35.834"/>
<rect x="865.739" y="179.168" fill="#7250DD" width="36.072" height="35.834"/>
<rect x="865.739" y="143.334" fill="#FFA311" width="36.072" height="35.834"/>
<rect x="865.739" y="107.5" fill="#7250DD" width="36.072" height="35.834"/>
<rect x="865.739" y="215.002" fill="#7250DD" width="36.071" height="35.833"/>
<rect x="865.739" y="250.835" fill="#7250DD" width="36.072" height="35.835"/>
<rect x="865.739" y="286.668" fill="#7250DD" width="36.072" height="35.834"/>
<rect x="865.739" y="358.342" fill="#FDED73" width="36.072" height="35.834"/>
<rect x="865.739" y="322.502" fill="#E67FC4" width="36.072" height="35.834"/>
<rect x="252.509" y="215.084" fill="#FDED73" width="36.072" height="35.833"/>
<rect x="649.304" y="286.668" fill="#297EF0" width="36.072" height="35.835"/>
<rect x="829.666" y="179.175" fill="#297EF0" width="36.072" height="35.833"/>
<rect x="829.665" y="107.583" fill="#297EF0" width="36.072" height="35.833"/>
<rect x="541.087" y="286.675" fill="#297EF0" width="36.072" height="35.834"/>
<rect x="505.016" y="179.175" fill="#297EF0" width="36.072" height="35.833"/>
<rect x="577.16" y="107.583" fill="#297EF0" width="36.072" height="35.833"/>
<rect x="541.088" y="215.083" fill="#6FC6B2" width="36.072" height="35.834"/>
<rect x="360.884" y="107.583" fill="#7250DD" width="36.072" height="35.834"/>
<rect x="288.58" y="107.583" fill="#7250DD" width="36.072" height="35.834"/>
<rect x="216.435" y="143.417" fill="#7250DD" width="36.072" height="35.834"/>
<rect x="216.436" y="215.083" fill="#7250DD" width="36.072" height="35.834"/>
<rect x="288.58" y="215.083" fill="#7250DD" width="36.072" height="35.834"/>
<rect x="288.58" y="286.675" fill="#7250DD" width="36.072" height="35.834"/>
<rect x="36.073" y="179.25" fill="#7250DD" width="36.072" height="35.834"/>
<rect x="72.146" y="215.084" fill="#297EF0" width="36.072" height="35.833"/>
<rect x="649.305" y="179.175" fill="#297EF0" width="36.072" height="35.833"/>
<rect x="829.666" y="322.509" fill="#297EF0" width="36.072" height="35.833"/>
<rect x="793.595" y="286.668" fill="#297EF0" width="36.072" height="35.833"/>
<rect x="324.652" y="179.175" fill="#FDED73" width="36.072" height="35.834"/>
</svg>
